<mxfile host="app.diagrams.net" modified="2024-05-30T07:13:12.016Z" agent="Mozilla/5.0 (Windows NT 10.0; Win64; x64) AppleWebKit/537.36 (KHTML, like Gecko) Chrome/125.0.0.0 Safari/537.36" version="24.4.10" etag="w07JMMDCjVkGRNZix7lx" type="github">
  <diagram name="第 1 页" id="aWmGXfhr_mvr0s_05qPj">
    <mxGraphModel>
      <root>
        <mxCell id="0" />
        <mxCell id="1" parent="0" />
      </root>
    </mxGraphModel>
  </diagram>
</mxfile>
